PathFileType	4	(X/Y/Z)	Run_500 01
DataRate	CameraRate	NumFrames	NumMarkers	Units	OrigDataRate	OrigDataStartFrame	OrigNumFrames
120	120	5	42	mm	120	206	128
Frame#	Time	LASI			RASI			LPSI			RPSI			RTH1			RTH2			RTH3			LTH1			LTH2			LTH3			RTB1			RTB2			LTB1			LTB2			LTB3			RCAL			RTOE			RMT5			LCAL			LTOE			LMT5			LACR			RACR			CLAV			C7			RUA1			RUA2			RUA3			RLEL			LUA1			LUA2			LUA3			LLEL			LMEL			RFAsuperior			RFAradius			RFAulna			LFAsuperior			LFAradius			LFAulna			RMEL			RTB3			
		X1	Y1	Z1	X2	Y2	Z2	X3	Y3	Z3	X4	Y4	Z4	X5	Y5	Z5	X6	Y6	Z6	X7	Y7	Z7	X8	Y8	Z8	X9	Y9	Z9	X10	Y10	Z10	X11	Y11	Z11	X12	Y12	Z12	X13	Y13	Z13	X14	Y14	Z14	X15	Y15	Z15	X16	Y16	Z16	X17	Y17	Z17	X18	Y18	Z18	X19	Y19	Z19	X20	Y20	Z20	X21	Y21	Z21	X22	Y22	Z22	X23	Y23	Z23	X24	Y24	Z24	X25	Y25	Z25	X26	Y26	Z26	X27	Y27	Z27	X28	Y28	Z28	X29	Y29	Z29	X30	Y30	Z30	X31	Y31	Z31	X32	Y32	Z32	X33	Y33	Z33	X34	Y34	Z34	X35	Y35	Z35	X36	Y36	Z36	X37	Y37	Z37	X38	Y38	Z38	X39	Y39	Z39	X40	Y40	Z40	X41	Y41	Z41	X42	Y42	Z42	

204	1.883333	1180.257557	975.940805	-425.188792	1186.43446	958.601601	-195.437117	1015.725953	1011.004194	-356.140775	1019.545563	1005.741702	-258.877309	1120.320037	791.889468	-148.169657	1201.690065	649.062627	-167.669168	1148.531937	563.269497	-184.883315	1149.192528	812.870723	-491.189024	1260.729807	748.2473210000001	-473.543862	1238.340025	606.097403	-461.42899	1050.446045	466.147979	-245.918679	1015.634037	546.694161	-192.303618	1305.174131	377.044489	-384.456114	1239.609161	292.363654	-427.958071	1231.250403	195.722683	-359.490846	830.705388	727.890183	-288.4399	702.6544259999999	560.208716	-286.311598	691.871415	595.609517	-184.684164	1077.95203	93.99642	-352.214339	1283.191345	72.96163900000001	-305.779911	1278.875043	37.369367	-411.808808	1169.078288	1416.593841	-532.307089	1207.235987	1437.890888	-165.090329	1254.877797	1385.144849	-329.307972	1146.575465	1476.205521	-355.600062	1174.638956	1365.940511	-110.135684	1154.392012	1279.842766	-114.301867	1076.456261	1303.516584	-87.369148	1025.630885	1208.596097	-48.235922	1118.343694	1351.811656	-582.038033	1045.024205	1320.633984	-555.200623	1076.59722	1254.245601	-602.7702880000001	974.29738	1191.375774	-628.075526	948.5826970000001	1193.584476	-558.2014820000001	1081.399101	1130.469564	-36.810512	1132.09905	954.894221	-58.038842	1064.907954	942.289409	-48.376574	1049.322805	1153.75485	-621.810438	1202.164643	1071.669588	-537.246249	1169.751247	1015.441128	-560.15117	999.145392	1207.714707	-109.595979	893.522121	562.053701	-250.957285	
205	1.891667	1178.465218	971.645033	-426.181267	1184.438155	952.601821	-196.311801	1013.633206	1006.770969	-356.507681	1017.352057	1001.25108	-259.564748	1126.406671	786.957049	-147.768841	1219.001275	650.777036	-166.141085	1172.974835	561.140291	-180.610635	1144.655152	807.859077	-491.436388	1253.483332	736.320164	-474.083977	1227.059104	596.408501	-458.267589	1080.485703	463.531182	-243.628282	1043.785734	542.169093	-188.189511	1282.287267	369.78931	-375.265608	1212.140091	287.881758	-422.789005	1197.77371	191.990956	-354.362136	851.804908	720.348074	-285.397484	731.581086	546.9845759999999	-288.349379	718.142966	579.652751	-185.858433	1038.679683	94.45191199999999	-346.981341	1244.224257	71.65939299999999	-302.829086	1238.047876	38.778579	-410.60518	1172.299318	1409.876071	-534.333921	1203.045024	1433.272967	-164.555472	1255.147383	1380.210973	-327.683903	1145.776029	1470.697633	-356.69576	1168.967032	1361.226457	-110.128222	1147.523698	1275.812689	-115.745214	1069.277063	1299.962597	-89.687614	1015.436065	1206.913374	-51.914683	1126.91421	1340.281398	-583.664804	1053.370888	1307.225254	-560.370497	1089.24287	1241.616553	-604.102161	991.466853	1173.072046	-633.5654970000001	960.504555	1174.765886	-565.573495	1068.245619	1127.549442	-36.660271	1109.56121	948.8633610000001	-49.454253	1041.087163	939.840725	-42.644661	1068.874961	1141.602746	-621.924423	1221.484348	1070.903669	-531.573199	1193.908023	1012.005529	-553.739108	992.70858	1203.606757	-113.808496	921.889757	554.8131069999999	-249.920421	
206	1.9	1176.881403	968.08651	-427.261359	1182.212225	947.945343	-196.623124	1011.945993	1004.217276	-356.711438	1015.462484	998.364747	-260.201136	1132.714784	785.164686	-147.173413	1236.67979	656.076914	-164.721159	1198.047877	563.148742	-176.555447	1139.588583	803.8581	-491.423633	1242.615194	724.343199	-474.931746	1210.175983	586.754039	-453.413763	1111.447399	462.471471	-241.224024	1071.698232	538.775246	-184.537965	1258.30523	362.938661	-368.573683	1184.013031	282.675368	-418.680252	1163.649045	187.760785	-350.931405	868.887657	709.799273	-282.871311	760.709333	528.872508	-289.930159	744.250808	558.675676	-186.88886	1000.264104	95.243754	-343.771754	1205.675117	70.633976	-300.664575	1198.473233	38.910563	-409.076308	1175.940879	1405.069074	-535.5114170000001	1198.868803	1429.989925	-163.859662	1255.086471	1376.75328	-325.692034	1145.068824	1466.540611	-357.413267	1163.127407	1357.984382	-110.032104	1140.552435	1273.304368	-117.007602	1061.588195	1298.111374	-92.86688700000001	1004.328595	1207.202073	-56.384076	1135.310499	1332.091704	-583.941015	1062.484787	1296.16405	-563.030645	1102.525333	1232.401012	-604.7980250000001	1010.068456	1157.487447	-637.7798299999999	974.128927	1158.130757	-572.050753	1055.233827	1127.200072	-36.943703	1088.315836	946.141273	-41.319973	1019.090114	940.44034	-38.332636	1089.136681	1132.71842	-621.606947	1241.09085	1074.736623	-524.924813	1219.063413	1013.219375	-546.264959	986.9218090000001	1200.508249	-119.224908	949.623151	546.388023	-248.503271	
207	1.908333	1175.668242	965.159839	-428.184276	1179.988934	945.167236	-196.168737	1010.805986	1003.032966	-356.925288	1013.916159	996.8142779999999	-261.044915	1138.777392	786.014982	-146.50425	1254.003159	664.703993	-163.343005	1222.598971	569.317126	-173.017819	1133.718632	800.288952	-491.104291	1229.041202	713.572434	-475.307577	1189.526092	578.24092	-447.971484	1142.932325	463.239752	-238.833823	1098.643431	536.174818	-181.728131	1232.593363	354.9936	-366.041112	1154.571111	276.882921	-415.909818	1128.410149	183.313389	-349.019768	882.565973	695.891151	-281.035688	790.394922	506.506512	-291.021798	770.603476	533.397394	-187.776763	962.049271	96.20179400000001	-342.488913	1167.124717	69.902793	-299.732899	1159.574637	38.645194	-407.954144	1179.866262	1402.510456	-535.638348	1194.618281	1428.252551	-163.102892	1254.736698	1374.865291	-323.413138	1144.494928	1463.916044	-357.835691	1156.963929	1356.749819	-109.950533	1133.406033	1272.632798	-117.882296	1053.486547	1298.392847	-97.191655	992.735862	1209.62244	-61.48304	1142.786157	1327.263798	-583.306746	1071.573106	1287.373759	-563.4493179999999	1115.860583	1226.550684	-605.079393	1029.530789	1145.328256	-640.533386	989.495556	1144.387725	-576.9833159999999	1042.288511	1129.382678	-37.544686	1068.54193	946.6008	-33.786151	999.336969	943.809529	-35.827027	1109.55182	1127.302221	-620.861418	1260.186604	1083.431755	-517.1756350000001	1244.456473	1019.576611	-537.797047	981.1249749999999	1199.291234	-125.437603	976.427757	537.014753	-246.68459	
208	1.916667	1174.998061	962.883996	-428.693699	1178.087065	944.556087	-195.147206	1010.254277	1002.83616	-357.394606	1012.758677	996.354468	-262.254814	1144.425974	788.608717	-145.877369	1270.274957	676.095115	-161.942792	1245.774891	579.0045	-170.18171	1126.498442	796.965104	-490.424624	1214.606521	704.906143	-475.039223	1168.10956	571.808373	-443.637316	1174.359207	466.022724	-236.585865	1124.242626	534.1524429999999	-179.938176	1204.676549	346.039643	-366.972529	1123.849887	271.613485	-414.50943	1092.648741	179.680453	-348.410904	893.855904	678.280115	-279.990095	821.0812979999999	480.680674	-291.597715	797.797944	504.789281	-188.438176	924.11927	97.852346	-342.596391	1128.666043	69.46683400000001	-299.962674	1121.025125	38.457699	-407.552587	1183.843738	1402.248152	-534.825022	1190.175885	1428.135761	-162.358008	1254.180207	1374.502272	-320.894473	1144.083974	1462.938187	-358.05452	1150.279734	1357.789228	-110.000145	1125.954998	1273.977867	-118.258089	1045.109456	1300.858658	-102.691922	981.281829	1214.009851	-66.892072	1149.162264	1325.431903	-582.352184	1080.163687	1280.769158	-562.565879	1128.758753	1223.730144	-605.042762	1049.174059	1136.769246	-641.8395410000001	1006.35401	1133.778618	-579.958428	1029.278126	1133.841311	-38.348028	1050.256473	949.959772	-26.991055	981.867786	949.4826870000001	-35.044372	1129.656448	1125.243717	-619.443524	1278.103283	1096.68774	-508.485669	1269.232299	1031.137425	-528.215592	974.71744	1200.576322	-131.838242	1002.487292	526.815213	-244.879427	
